<?xml version="1.0" encoding="utf-8"?>
<svg version="1.1" style="shape-rendering:geometricPrecision;text-rendering:geometricPrecision;image-rendering:optimizeQuality;" viewBox="0 0 240 195.68" x="0px" y="0px" fill-rule="evenodd" clip-rule="evenodd" xmlns="http://www.w3.org/2000/svg">
  <defs>
    <style type="text/css">
   
    .fil0 {fill:black}
   
  </style>
  </defs>
  <g>
    <path class="fil0" d="M115 43c2,0 3,-2 3,-5 0,-3 -3,-5 -6,-5 -3,0 -5,2 -5,5 0,3 1,5 3,5 -20,1 -37,10 -50,23 -10,-8 -32,-6 -33,-7 -4,-2 -7,-6 -10,-5 -2,1 -3,0 -4,0 -3,-2 -4,-12 -10,-6 1,3 0,5 -3,5 -2,9 8,4 10,5 1,0 2,1 2,3 1,3 6,4 10,6 11,6 8,16 20,22 1,1 2,2 4,2 -1,1 -1,3 -1,4 -3,-3 -8,-6 -13,-9 -7,-3 -12,-4 -15,-3 -17,15 2,37 25,34 -19,5 -44,-11 -30,-31 -19,19 12,39 30,33l0 1 120 0c3,-28 -8,-55 -32,-69 25,10 43,35 43,64 0,2 0,4 0,5l9 0c1,-3 1,-6 1,-9 15,-33 38,-69 57,-101 3,-28 -62,58 -52,74l-7 13c-2,-6 -4,-12 -7,-18 1,-5 3,-11 5,-16 7,-1 12,-4 15,-12 6,-15 9,-30 13,-45 -6,12 -11,25 -15,38 -1,3 -3,1 -3,-1 5,-13 8,-26 12,-39 -6,13 -11,24 -15,38 -1,2 -3,2 -2,-1 4,-13 8,-25 12,-39 -6,13 -12,25 -16,38 -1,1 -3,2 -2,-1 4,-13 9,-26 12,-39 -7,14 -14,28 -19,43 -3,8 0,13 4,19 -1,4 -3,8 -4,12 -13,-18 -33,-30 -56,-31zm-56 25c-1,1 -2,2 -2,3 -6,-5 -14,-8 -21,-8 8,-1 17,1 23,5zm-17 38l0 1c-1,-1 -2,-2 -5,-1 -2,0 -3,-2 -5,-1 -5,1 -8,0 -12,-1 8,-1 17,3 10,-10 3,2 3,4 4,5 5,0 4,3 6,6 0,0 1,1 2,1zm-5 -2c2,-1 -1,-5 -3,-4 -2,2 1,6 3,4z" style="fill: rgb(27, 139, 31);"/>
    <path class="fil0" d="M72 130c2,3 5,6 6,9 1,4 -8,14 -6,19 2,11 -2,11 -7,18 5,2 11,6 16,8 15,-24 43,-38 64,-47 -1,-3 -3,-4 -7,-3 -11,4 -22,8 -33,13 -14,6 -19,3 -19,-5 0,-6 -3,-10 -6,-12l24 0c-2,4 -6,14 -9,19 6,-1 15,-6 22,-8 4,-9 7,-9 6,-11l9 0c-4,1 -11,8 -14,10 5,-2 10,-4 15,-6 3,-2 4,-4 3,-4l56 0c3,0 3,-6 0,-6l-159 0c-3,0 -3,6 0,6l39 0zm46 0l-9 0c0,3 -3,11 -5,14 0,1 1,0 3,-1 3,-4 7,-11 11,-13z" style="fill: rgb(79, 169, 31);"/>
    <path class="fil0" d="M82 187l-21 -10 -17 17 31 0 7 -7zm-20 -7c1,0 3,1 3,2 0,1 -1,2 -2,2 -2,0 -3,-1 -3,-2 0,-1 1,-2 2,-2z" style="fill: rgb(31, 118, 38);"/>
  </g>
</svg>